<svg width="28" height="28" viewBox="0 0 28 28" fill="none" xmlns="http://www.w3.org/2000/svg">
<path d="M4.49999 11.5C4.49999 9.64348 5.23749 7.86301 6.55024 6.55025C7.863 5.2375 9.64347 4.5 11.5 4.5C13.3565 4.5 15.137 5.2375 16.4497 6.55025C17.7625 7.86301 18.5 9.64348 18.5 11.5C18.5 13.3565 17.7625 15.137 16.4497 16.4497C15.137 17.7625 13.3565 18.5 11.5 18.5C9.64347 18.5 7.863 17.7625 6.55024 16.4497C5.23749 15.137 4.49999 13.3565 4.49999 11.5ZM11.5 3C10.1339 3 8.78792 3.32927 7.5761 3.95991C6.36428 4.59055 5.32231 5.50398 4.53846 6.62282C3.75461 7.74166 3.25198 9.03294 3.07315 10.3873C2.89432 11.7416 3.04455 13.1191 3.51112 14.4031C3.97769 15.687 4.74686 16.8396 5.75346 17.7632C6.76005 18.6867 7.97443 19.3541 9.2937 19.7087C10.613 20.0633 11.9983 20.0946 13.3323 19.8002C14.6662 19.5057 15.9096 18.894 16.957 18.017L23.72 24.78C23.7886 24.8537 23.8715 24.9128 23.9634 24.9538C24.0554 24.9948 24.1548 25.0168 24.2555 25.0186C24.3562 25.0204 24.4562 25.0018 24.5496 24.9641C24.643 24.9264 24.7278 24.8703 24.799 24.799C24.8702 24.7278 24.9264 24.643 24.9641 24.5496C25.0018 24.4562 25.0204 24.3562 25.0186 24.2555C25.0168 24.1548 24.9948 24.0555 24.9538 23.9635C24.9128 23.8715 24.8537 23.7887 24.78 23.72L18.017 16.957C19.0553 15.717 19.7183 14.2066 19.9281 12.603C20.138 10.9994 19.886 9.36918 19.2018 7.90378C18.5175 6.43838 17.4294 5.19861 16.0652 4.33C14.701 3.46139 13.1173 3 11.5 3Z" fill="white"/>
</svg>
