<svg width="18" height="18" viewBox="0 0 18 18" fill="none" xmlns="http://www.w3.org/2000/svg">
<g clip-path="url(#clip0_2388_8319)">
<path d="M13.2016 4.19961H14.4016M5.40156 0.599609H12.6016C13.8746 0.599609 15.0955 1.10532 15.9957 2.0055C16.8958 2.90567 17.4016 4.12657 17.4016 5.39961V12.5996C17.4016 13.8726 16.8958 15.0935 15.9957 15.9937C15.0955 16.8939 13.8746 17.3996 12.6016 17.3996H5.40156C4.12852 17.3996 2.90762 16.8939 2.00745 15.9937C1.10728 15.0935 0.601563 13.8726 0.601562 12.5996V5.39961C0.601563 4.12657 1.10728 2.90567 2.00745 2.0055C2.90762 1.10532 4.12852 0.599609 5.40156 0.599609ZM9.00156 12.5996C8.04678 12.5996 7.13111 12.2203 6.45598 11.5452C5.78085 10.8701 5.40156 9.95439 5.40156 8.99961C5.40156 8.04483 5.78085 7.12916 6.45598 6.45402C7.13111 5.77889 8.04678 5.39961 9.00156 5.39961C9.95634 5.39961 10.872 5.77889 11.5471 6.45402C12.2223 7.12916 12.6016 8.04483 12.6016 8.99961C12.6016 9.95439 12.2223 10.8701 11.5471 11.5452C10.872 12.2203 9.95634 12.5996 9.00156 12.5996Z" stroke="#202124"/>
</g>
<defs>
<clipPath id="clip0_2388_8319">
<rect width="18" height="18" fill="white"/>
</clipPath>
</defs>
</svg>
