<svg width="18" height="18" viewBox="0 0 18 18" fill="none" xmlns="http://www.w3.org/2000/svg">
<g clip-path="url(#clip0_2388_8321)">
<path d="M16.3125 0.42194H1.6875C1.35567 0.418563 1.03605 0.546962 0.798777 0.778963C0.561503 1.01096 0.425955 1.32762 0.421875 1.65944V16.3435C0.426693 16.6748 0.562565 16.9908 0.799758 17.2222C1.03695 17.4536 1.35615 17.5816 1.6875 17.5782H16.3125C16.6444 17.5808 16.9638 17.452 17.2009 17.2198C17.4381 16.9877 17.5737 16.6711 17.5781 16.3393V1.65522C17.5722 1.32437 17.4359 1.00923 17.1989 0.778292C16.962 0.547356 16.6434 0.419293 16.3125 0.42194ZM5.50828 15.0469H2.96156V6.85272H5.50828V15.0469ZM4.24266 5.73616C3.95056 5.73644 3.66494 5.65007 3.42194 5.488C3.17893 5.32592 2.98946 5.09541 2.87749 4.82563C2.76551 4.55585 2.73607 4.25891 2.79289 3.9724C2.8497 3.68588 2.99022 3.42265 3.19667 3.21601C3.40311 3.00937 3.66621 2.8686 3.95267 2.81151C4.23913 2.75442 4.53609 2.78358 4.80598 2.8953C5.07587 3.00701 5.30656 3.19627 5.46887 3.43912C5.63118 3.68197 5.71781 3.9675 5.71781 4.2596C5.71744 4.45374 5.67879 4.6459 5.60407 4.82509C5.52935 5.00428 5.42003 5.16697 5.28236 5.30386C5.14468 5.44074 4.98137 5.54914 4.80176 5.62284C4.62215 5.69653 4.42977 5.73409 4.23563 5.73335L4.24266 5.73616ZM15.0469 15.0469H12.5002V11.0602C12.5002 10.111 12.4833 8.88897 11.1769 8.88897C9.87047 8.88897 9.64828 9.92397 9.64828 10.9983V15.0469H7.10578V6.85272H9.54703V7.97772H9.58078C9.92109 7.33366 10.7508 6.65444 11.9897 6.65444C14.5688 6.64881 15.0469 8.34616 15.0469 10.5469V15.0469Z" fill="#202124"/>
</g>
<defs>
<clipPath id="clip0_2388_8321">
<rect width="18" height="18" fill="white"/>
</clipPath>
</defs>
</svg>
