<svg width="18" height="18" viewBox="0 0 18 18" fill="none" xmlns="http://www.w3.org/2000/svg">
<path fill-rule="evenodd" clip-rule="evenodd" d="M16.905 4.815C16.8113 4.46421 16.6273 4.1441 16.3714 3.88657C16.1154 3.62905 15.7965 3.44309 15.4462 3.34725C14.16 3 9 3 9 3C9 3 3.84 3 2.55375 3.34725C2.20354 3.44309 1.88457 3.62905 1.62862 3.88657C1.37267 4.1441 1.18869 4.46421 1.095 4.815C0.75 6.111 0.75 8.8125 0.75 8.8125C0.75 8.8125 0.75 11.514 1.095 12.81C1.18857 13.1609 1.37251 13.4812 1.62846 13.7389C1.88442 13.9965 2.20345 14.1826 2.55375 14.2785C3.84075 14.625 9 14.625 9 14.625C9 14.625 14.16 14.625 15.4462 14.2785C15.7965 14.1826 16.1156 13.9965 16.3715 13.7389C16.6275 13.4812 16.8114 13.1609 16.905 12.81C17.25 11.5155 17.25 8.8125 17.25 8.8125C17.25 8.8125 17.25 6.111 16.905 4.815ZM7.3125 6.35925V11.2657L11.625 8.8125L7.3125 6.35925Z" fill="#202124"/>
</svg>
